<?xml version="1.0" encoding="UTF-8" standalone="no"?>
<!-- Created with Inkscape (http://www.inkscape.org/) -->

<svg
   xmlns:dc="http://purl.org/dc/elements/1.1/"
   xmlns:cc="http://creativecommons.org/ns#"
   xmlns:rdf="http://www.w3.org/1999/02/22-rdf-syntax-ns#"
   xmlns:svg="http://www.w3.org/2000/svg"
   xmlns="http://www.w3.org/2000/svg"
   xmlns:sodipodi="http://sodipodi.sourceforge.net/DTD/sodipodi-0.dtd"
   xmlns:inkscape="http://www.inkscape.org/namespaces/inkscape"
   width="210mm"
   height="297mm"
   viewBox="0 0 210 297"
   version="1.1"
   id="svg8"
   inkscape:version="0.92.4 (5da689c313, 2019-01-14)"
   sodipodi:docname="Rock.svg">
  <defs
     id="defs2">
    <inkscape:perspective
       sodipodi:type="inkscape:persp3d"
       inkscape:vp_x="0 : 148.5 : 1"
       inkscape:vp_y="0 : 1000 : 0"
       inkscape:vp_z="210 : 148.5 : 1"
       inkscape:persp3d-origin="105 : 99 : 1"
       id="perspective890" />
  </defs>
  <sodipodi:namedview
     id="base"
     pagecolor="#ffffff"
     bordercolor="#666666"
     borderopacity="1.0"
     inkscape:pageopacity="0.0"
     inkscape:pageshadow="2"
     inkscape:zoom="0.5"
     inkscape:cx="407.57714"
     inkscape:cy="431.67156"
     inkscape:document-units="mm"
     inkscape:current-layer="g1010"
     showgrid="false"
     inkscape:window-width="1822"
     inkscape:window-height="1051"
     inkscape:window-x="-9"
     inkscape:window-y="-9"
     inkscape:window-maximized="1" />
  <metadata
     id="metadata5">
    <rdf:RDF>
      <cc:Work
         rdf:about="">
        <dc:format>image/svg+xml</dc:format>
        <dc:type
           rdf:resource="http://purl.org/dc/dcmitype/StillImage" />
        <dc:title></dc:title>
      </cc:Work>
    </rdf:RDF>
  </metadata>
  <g
     style="display:inline;opacity:1"
     id="g1010"
     inkscape:groupmode="layer"
     inkscape:label="outline">
    <path
       sodipodi:nodetypes="ccccccccccccccc"
       inkscape:connector-curvature="0"
       id="path1008"
       d="m 170.53347,134.56406 2.35095,35.53453 -16.88406,23.40487 -28.96183,9.8799 -31.511747,1.31611 L 68.570417,184.59811 50.709528,160.09202 65.27017,100.91317 c 0,0 14.641212,-10.012315 25.509799,-18.197735 l 15.767531,-1.53532 11.12948,3.208363 18.60966,5.131656 9.55026,3.892872 16.77461,16.570394 z"
       style="opacity:1;fill:#2b2419;fill-opacity:1;fill-rule:nonzero;stroke:#191919;stroke-width:8;stroke-linecap:round;stroke-linejoin:round;stroke-miterlimit:4;stroke-dasharray:none;stroke-dashoffset:0;stroke-opacity:1;paint-order:stroke fill markers" />
  </g>
  <g
     inkscape:label="bottom layer"
     inkscape:groupmode="layer"
     id="layer1"
     style="display:inline;opacity:1"
     sodipodi:insensitive="true">
    <path
       style="opacity:1;fill:#97948d;fill-opacity:1;fill-rule:nonzero;stroke:none;stroke-width:7.9375;stroke-linecap:round;stroke-linejoin:round;stroke-miterlimit:4;stroke-dasharray:none;stroke-dashoffset:0;stroke-opacity:0;paint-order:stroke fill markers"
       d="m 170.53347,134.56406 2.35095,35.53453 -16.88406,23.40487 -28.96183,9.8799 -31.511747,1.31611 L 68.570417,184.59811 50.709528,160.09202 65.27017,100.91317 c 0,0 14.641212,-10.012315 25.509799,-18.197735 l 15.767531,-1.53532 11.12948,3.208363 18.60966,5.131656 9.55026,3.892872 16.77461,16.570394 z"
       id="path815"
       inkscape:connector-curvature="0"
       sodipodi:nodetypes="ccccccccccccccc" />
  </g>
  <g
     inkscape:groupmode="layer"
     id="layer6"
     inkscape:label="highlights"
     sodipodi:insensitive="true">
    <path
       style="opacity:1;fill:#acaba7;fill-opacity:1;fill-rule:nonzero;stroke:none;stroke-width:7.9375;stroke-linecap:round;stroke-linejoin:round;stroke-miterlimit:4;stroke-dasharray:none;stroke-dashoffset:0;stroke-opacity:0;paint-order:stroke fill markers"
       d="m 90.779969,82.715435 15.767531,-1.53532 14.43427,3.87351 -8.62521,0.58232 -3.23748,7.781188 -7.88848,2.798082 -1.286428,7.659965 -16.032966,2.83053 -7.184436,-0.84633 2.418616,8.2517 -17.068907,0.5643 3.193691,-13.76221 z"
       id="rect972"
       inkscape:connector-curvature="0"
       sodipodi:nodetypes="ccccccccccccc" />
    <path
       style="opacity:1;fill:#acaba7;fill-opacity:1;fill-rule:nonzero;stroke:none;stroke-width:7.9375;stroke-linecap:round;stroke-linejoin:round;stroke-miterlimit:4;stroke-dasharray:none;stroke-dashoffset:0;stroke-opacity:0;paint-order:stroke fill markers"
       d="m 62.076479,114.67538 12.66062,-1.88679 -7.290303,18.68022 -11.844027,8.90625 z"
       id="rect975"
       inkscape:connector-curvature="0"
       sodipodi:nodetypes="ccccc" />
    <path
       style="opacity:1;fill:#acaba7;fill-opacity:1;fill-rule:nonzero;stroke:none;stroke-width:7.9375;stroke-linecap:round;stroke-linejoin:round;stroke-miterlimit:4;stroke-dasharray:none;stroke-dashoffset:0;stroke-opacity:0;paint-order:stroke fill markers"
       d="m 122.78757,128.4079 6.39202,2.31436 0.44083,7.6043 -4.07767,-3.74705 z"
       id="rect975-7"
       inkscape:connector-curvature="0"
       sodipodi:nodetypes="ccccc" />
    <path
       style="opacity:1;fill:#acaba7;fill-opacity:1;fill-rule:nonzero;stroke:none;stroke-width:7.9375;stroke-linecap:round;stroke-linejoin:round;stroke-miterlimit:4;stroke-dasharray:none;stroke-dashoffset:0;stroke-opacity:0;paint-order:stroke fill markers"
       d="m 134.26637,92.887128 8.26229,1.535079 -5.05089,5.064095 -7.7065,4.721718 -9.73808,0.61741 6.02168,-9.213635 z"
       id="rect975-7-1"
       inkscape:connector-curvature="0"
       sodipodi:nodetypes="ccccccc" />
  </g>
  <g
     inkscape:groupmode="layer"
     id="layer5"
     inkscape:label="4th darkest"
     sodipodi:insensitive="true">
    <path
       style="display:inline;opacity:1;fill:#77736b;fill-opacity:1;fill-rule:nonzero;stroke:none;stroke-width:7.9375;stroke-linecap:round;stroke-linejoin:round;stroke-miterlimit:4;stroke-dasharray:none;stroke-dashoffset:0;stroke-opacity:0;paint-order:stroke fill markers"
       d="m 172.88442,170.09859 -16.88406,23.40487 -28.96183,9.8799 -8.39284,-0.70881 -22.531449,2.79134 -27.543824,-20.86778 -13.519099,-18.81942 3.768747,-19.70603 3.590494,-7.63541 12.049349,-1.75998 18.067296,-10.71619 4.686411,-11.7529 6.953315,-3.29319 0.36373,-4.92015 6.14698,1.76109 9.008,4.42463 -5.61958,4.36693 -0.97056,9.08152 -2.87595,0.23846 -23.622862,8.97819 -7.13861,16.28544 3.963611,6.36816 0.90662,6.07065 13.043161,1.72684 12.92979,-8.02188 1.29731,-13.31026 4.64385,-1.26515 25.95329,4.08441 9.11602,-8.33597 -4.24794,-2.46702 0.91504,-3.00942 17.63652,-12.61621 4.91812,14.20881 0.88166,7.6594 z"
       id="path832-7-7"
       inkscape:connector-curvature="0"
       sodipodi:nodetypes="ccccccccccccccccccccccccccccccccccc" />
  </g>
  <g
     inkscape:groupmode="layer"
     id="layer4"
     inkscape:label="3rd darkest"
     style="display:inline"
     sodipodi:insensitive="true">
    <path
       style="display:inline;opacity:1;fill:#57534b;fill-opacity:1;fill-rule:nonzero;stroke:none;stroke-width:7.9375;stroke-linecap:round;stroke-linejoin:round;stroke-miterlimit:4;stroke-dasharray:none;stroke-dashoffset:0;stroke-opacity:0;paint-order:stroke fill markers"
       d="m 172.88442,170.09859 -16.88406,23.40487 -28.96183,9.8799 -8.39284,-0.70881 -22.53145,2.79134 -27.543823,-20.86778 -13.519099,-18.81942 6.418307,0.55531 10.292323,4.67726 8.050563,8.61326 8.506567,1.3539 5.810637,-7.99747 13.761985,-4.8068 10.5204,-3.96839 10.28023,5.84934 6.75228,-3.4913 4.17629,-4.07057 -5.52973,-8.38411 21.58454,-7.24497 1.67461,-1.84359 0.91504,-3.00942 6.86723,-8.73471 2.31508,1.23253 2.27714,13.17607 0.94638,1.66932 1.05856,4.71208 z"
       id="path832-7"
       inkscape:connector-curvature="0"
       sodipodi:nodetypes="ccccccccccccccccccccccccccc" />
    <path
       style="opacity:1;fill:#57534b;fill-opacity:1;fill-rule:nonzero;stroke:none;stroke-width:7.9375;stroke-linecap:round;stroke-linejoin:round;stroke-miterlimit:4;stroke-dasharray:none;stroke-dashoffset:0;stroke-opacity:0;paint-order:stroke fill markers"
       d="m 113.1022,114.36836 6.58344,-2.1878 -0.30628,6.95793 -0.77966,9.82045 -11.63647,6.9172 -7.880873,-3.44641 -1.672587,-9.10289 11.13093,-5.95119 z"
       id="rect881"
       inkscape:connector-curvature="0"
       sodipodi:nodetypes="ccccccccc" />
    <path
       style="opacity:1;fill:#57534b;fill-opacity:1;fill-rule:nonzero;stroke:none;stroke-width:7.9375;stroke-linecap:round;stroke-linejoin:round;stroke-miterlimit:4;stroke-dasharray:none;stroke-dashoffset:0;stroke-opacity:0;paint-order:stroke fill markers"
       d="m 115.66244,88.102292 2.12783,0.918999 0.68245,3.599492 3.63684,5.565466 -4.76236,-0.204689 -3.17256,-1.228004 -1.26168,-5.435326 z"
       id="rect884"
       inkscape:connector-curvature="0"
       sodipodi:nodetypes="cccccccc" />
    <path
       style="opacity:1;fill:#57534b;fill-opacity:1;fill-rule:nonzero;stroke:none;stroke-width:7.9375;stroke-linecap:round;stroke-linejoin:round;stroke-miterlimit:4;stroke-dasharray:none;stroke-dashoffset:0;stroke-opacity:0;paint-order:stroke fill markers"
       d="m 72.784981,132.10383 9.507245,-8.41625 -2.64956,12.62437 -9.818958,3.89641 z"
       id="rect887"
       inkscape:connector-curvature="0"
       sodipodi:nodetypes="ccccc" />
  </g>
  <g
     inkscape:groupmode="layer"
     id="layer3"
     inkscape:label="2nd darkest"
     style="display:inline"
     sodipodi:insensitive="true">
    <path
       style="opacity:1;fill:#3c3a34;fill-opacity:1;fill-rule:nonzero;stroke:none;stroke-width:7.9375;stroke-linecap:round;stroke-linejoin:round;stroke-miterlimit:4;stroke-dasharray:none;stroke-dashoffset:0;stroke-opacity:0;paint-order:stroke fill markers"
       d="m 172.88442,170.09859 -16.88406,23.40487 -28.96183,9.8799 -8.39284,-0.70881 -22.531446,2.79134 -9.806773,-7.40638 2.687658,-4.94944 10.134143,0.28274 6.980058,1.20413 7.95432,-5.84914 -13.09136,-0.30671 -8.024506,-2.83397 5.380774,-2.31208 2.634002,-2.59959 8.25163,-0.1781 7.4346,-4.1888 7.19442,-2.30599 11.1514,-5.76229 11.69475,-5.31913 -2.66017,-5.29703 10.56052,-2.87375 1.086,-7.90621 1.67461,-1.84359 0.91504,-3.00942 6.86723,-8.73471 4.59222,14.4086 0.94638,1.66932 1.05856,4.71208 z"
       id="path832"
       inkscape:connector-curvature="0"
       sodipodi:nodetypes="ccccccccccccccccccccccccccccc" />
    <path
       style="opacity:1;fill:#3c3a34;fill-opacity:1;fill-rule:nonzero;stroke:none;stroke-width:7.9375;stroke-linecap:round;stroke-linejoin:round;stroke-miterlimit:4;stroke-dasharray:none;stroke-dashoffset:0;stroke-opacity:0;paint-order:stroke fill markers"
       d="m 117.02665,120.24104 1.57305,8.7179 -10.38962,3.95593 -3.74705,-6.72264 4.07767,-8.81658 z"
       id="path844"
       inkscape:connector-curvature="0"
       sodipodi:nodetypes="cccccc" />
    <path
       style="opacity:1;fill:#3c3a34;fill-opacity:1;fill-rule:nonzero;stroke:none;stroke-width:7.9375;stroke-linecap:round;stroke-linejoin:round;stroke-miterlimit:4;stroke-dasharray:none;stroke-dashoffset:0;stroke-opacity:0;paint-order:stroke fill markers"
       d="m 66.862824,169.73478 10.850312,-1.14808 -5.792155,7.3858 -3.350564,8.62561 -3.266552,-4.41256 z"
       id="rect906"
       inkscape:connector-curvature="0"
       sodipodi:nodetypes="cccccc" />
    <path
       style="display:inline;opacity:1;fill:#3c3a34;fill-opacity:1;fill-rule:nonzero;stroke:none;stroke-width:7.9375;stroke-linecap:round;stroke-linejoin:round;stroke-miterlimit:4;stroke-dasharray:none;stroke-dashoffset:0;stroke-opacity:0;paint-order:stroke fill markers"
       d="m 86.675016,145.664 10.850312,-1.14808 -8.12933,3.73445 -4.279941,7.8644 z"
       id="rect906-5"
       inkscape:connector-curvature="0"
       sodipodi:nodetypes="ccccc" />
    <path
       style="display:inline;opacity:1;fill:#3c3a34;fill-opacity:1;fill-rule:nonzero;stroke:none;stroke-width:7.9375;stroke-linecap:round;stroke-linejoin:round;stroke-miterlimit:4;stroke-dasharray:none;stroke-dashoffset:0;stroke-opacity:0;paint-order:stroke fill markers"
       d="m 129.45584,120.7834 8.42339,6.93498 -8.94589,-2.49775 z"
       id="rect906-5-1"
       inkscape:connector-curvature="0"
       sodipodi:nodetypes="cccc" />
  </g>
  <g
     style="display:inline"
     inkscape:label="darkest shade"
     id="g841"
     inkscape:groupmode="layer"
     sodipodi:insensitive="true">
    <path
       sodipodi:nodetypes="ccccccccccccsccccccc"
       inkscape:connector-curvature="0"
       id="path839"
       d="m 170.21707,173.72727 -14.21671,19.77619 -28.96183,9.8799 -11.0424,0.65493 -10.74401,0.30885 14.10501,-10.52948 8.17896,-3.06947 -6.86645,-4.15244 5.01883,-7.69557 9.29848,-4.02041 5.30678,-5.45058 9.82447,-4.77363 4.35337,-5.68667 c 0.0398,-0.052 7.62202,-1.81167 7.62202,-1.81167 l 5.21016,-6.58352 1.62206,-1.7866 1.34765,1.64829 0.99698,4.23166 -0.47583,7.65977 z"
       style="opacity:1;fill:#2b2419;fill-opacity:1;fill-rule:nonzero;stroke:none;stroke-width:7.9375;stroke-linecap:round;stroke-linejoin:round;stroke-miterlimit:4;stroke-dasharray:none;stroke-dashoffset:0;stroke-opacity:0;paint-order:stroke fill markers" />
    <path
       style="opacity:1;fill:#1e1c18;fill-opacity:1;fill-rule:nonzero;stroke:none;stroke-width:7.93749952;stroke-linecap:round;stroke-linejoin:round;stroke-miterlimit:4;stroke-dasharray:none;stroke-dashoffset:0;stroke-opacity:0;paint-order:stroke fill markers"
       d="m 109.607,119.81439 3.68712,1.84357 -2.21227,2.02794 -1.8067,-1.25363 z"
       id="rect847"
       inkscape:connector-curvature="0"
       sodipodi:nodetypes="ccccc" />
    <path
       style="display:inline;opacity:1;fill:#1e1c18;fill-opacity:1;fill-rule:nonzero;stroke:none;stroke-width:7.93749952;stroke-linecap:round;stroke-linejoin:round;stroke-miterlimit:4;stroke-dasharray:none;stroke-dashoffset:0;stroke-opacity:0;paint-order:stroke fill markers"
       d="m 109.74022,123.48311 3.35528,2.1459 -2.23684,1.43065 -0.63911,-1.19219 z"
       id="rect847-4"
       inkscape:connector-curvature="0"
       sodipodi:nodetypes="ccccc" />
  </g>
</svg>
